<mxfile host="app.diagrams.net" modified="2024-02-29T14:50:23.720Z" agent="Mozilla/5.0 (Windows NT 10.0; Win64; x64) AppleWebKit/537.36 (KHTML, like Gecko) Chrome/122.0.0.0 Safari/537.36" version="23.1.1" etag="rhZvm-fFrA_evwi5mhQ3" type="github">
  <diagram name="Page-1" id="ppHCY8-T0-xMPih27KgB">
    <mxGraphModel>
      <root>
        <mxCell id="0" />
        <mxCell id="1" parent="0" />
      </root>
    </mxGraphModel>
  </diagram>
</mxfile>
